<?xml version="1.0" standalone="no"?>
<!DOCTYPE svg PUBLIC "-//W3C//DTD SVG 20010904//EN"
 "http://www.w3.org/TR/2001/REC-SVG-20010904/DTD/svg10.dtd">
<svg version="1.0" xmlns="http://www.w3.org/2000/svg"
 width="695.000000pt" height="934.000000pt" viewBox="0 0 695.000000 934.000000"
 preserveAspectRatio="xMidYMid meet">
<metadata>
Created by potrace 1.16, written by Peter Selinger 2001-2019
</metadata>
<g transform="translate(0.000000,934.000000) scale(0.100000,-0.100000)"
fill="#000000" stroke="none">
<path d="M4955 7572 c-33 -13 -101 -44 -151 -67 -49 -24 -105 -46 -123 -48
-19 -3 -38 -10 -44 -16 -6 -6 -21 -11 -34 -11 -13 0 -23 -4 -23 -10 0 -5 -8
-10 -17 -10 -27 0 -147 -31 -157 -41 -6 -5 -16 -9 -22 -9 -7 0 -25 -5 -41 -12
-34 -14 -35 -14 -103 -33 -65 -18 -102 -24 -193 -30 -37 -2 -72 -7 -79 -11 -7
-4 -87 -9 -179 -10 -92 -1 -172 -5 -177 -8 -6 -3 -32 -2 -59 3 -27 5 -69 7
-93 5 -25 -3 -79 -8 -120 -10 -41 -3 -76 -10 -78 -15 -2 -5 -10 -9 -17 -9 -7
0 -15 -7 -19 -15 -3 -8 -12 -15 -21 -15 -8 0 -15 -5 -15 -11 0 -7 7 -8 18 -4
114 44 127 45 370 45 130 0 260 1 287 3 28 2 75 5 105 5 41 2 51 5 40 13 -11
7 -6 9 22 7 20 -1 40 1 44 5 4 4 23 7 43 7 44 1 63 5 261 64 298 89 386 119
470 158 47 22 96 42 110 45 36 7 78 40 65 51 -6 5 -34 -1 -70 -16z"/>
<path d="M3155 7166 c-10 -14 -21 -24 -25 -21 -5 3 -12 -4 -15 -15 -6 -18 -41
-47 -184 -155 -14 -10 -65 -51 -112 -91 -47 -39 -94 -76 -105 -82 -23 -12
-208 -153 -267 -204 -21 -18 -33 -34 -27 -36 6 -2 24 7 38 20 15 13 40 33 57
43 36 22 40 25 90 68 22 19 45 36 50 38 17 7 106 72 137 102 16 15 34 27 39
27 5 0 14 9 21 20 7 11 18 20 25 20 6 0 13 3 15 8 2 4 29 27 61 51 31 24 57
47 57 52 0 5 5 9 12 9 7 0 30 17 52 39 23 21 58 55 80 76 26 25 35 40 28 47
-7 7 -16 2 -27 -16z"/>
<path d="M5140 6659 c-41 -11 -84 -23 -95 -28 -11 -4 -37 -16 -58 -25 -21 -9
-44 -16 -52 -16 -7 0 -15 -3 -17 -7 -1 -5 -24 -19 -49 -31 -26 -13 -63 -38
-83 -56 -44 -41 -93 -77 -127 -95 -14 -7 -39 -24 -54 -37 -33 -28 -39 -30 -31
-9 17 45 -52 -28 -76 -79 -6 -14 -15 -26 -19 -26 -4 0 -24 -15 -43 -34 -37
-35 -146 -109 -206 -142 -19 -10 -57 -32 -84 -48 -27 -17 -55 -31 -62 -32 -8
-1 -33 -19 -58 -39 -25 -20 -48 -36 -53 -36 -4 0 -16 -2 -26 -5 -13 -4 -15 -9
-7 -19 8 -9 0 -28 -30 -72 -22 -33 -40 -63 -40 -66 0 -8 -68 -118 -84 -136 -8
-9 -31 -47 -51 -86 -71 -132 -234 -298 -310 -315 -28 -6 -37 -4 -56 16 -12 13
-28 24 -35 24 -6 0 -28 19 -49 41 -34 38 -37 45 -31 83 4 22 22 66 40 96 19
30 42 81 52 113 10 31 21 57 26 57 4 0 8 6 8 14 0 17 88 148 130 194 16 18 30
36 30 40 0 4 9 14 20 22 11 8 20 18 20 23 0 4 9 18 21 30 35 37 112 148 106
153 -6 6 -94 -79 -121 -116 -17 -24 -17 -22 -11 95 3 66 9 165 14 220 8 113 5
138 -16 109 -7 -10 -13 -29 -13 -43 0 -54 -13 -54 -81 -5 -75 55 -94 71 -59
54 14 -7 28 -18 32 -24 4 -6 11 -7 15 -2 4 4 -2 16 -14 26 -12 9 -20 20 -17
23 9 9 -85 40 -105 34 -11 -3 -25 1 -32 9 -6 8 -22 12 -35 10 -21 -4 -82 18
-94 34 -14 18 -84 58 -95 54 -7 -3 -12 -17 -12 -32 0 -16 -11 -35 -29 -50 -16
-13 -43 -37 -61 -53 -37 -34 -53 -39 -23 -7 11 12 20 31 20 42 -1 18 -3 17
-16 -7 -8 -15 -19 -25 -24 -22 -5 3 -15 -3 -22 -15 -7 -11 -18 -20 -25 -20 -7
0 -22 -10 -34 -22 -12 -13 -19 -17 -15 -10 10 16 1 15 -17 -3 -32 -31 -148
-105 -158 -100 -5 4 -9 -2 -9 -12 0 -14 -2 -15 -9 -4 -7 11 -9 11 -13 0 -3 -8
-8 3 -12 23 -7 40 -29 58 -64 55 -25 -1 -29 -12 -8 -20 37 -15 106 -178 122
-293 7 -44 4 -49 -58 -99 -24 -19 -24 -21 -7 -33 12 -8 25 -9 42 -3 25 10 37
6 37 -11 0 -4 -6 -7 -12 -6 -10 2 -12 -16 -10 -70 2 -62 -3 -85 -29 -152 -18
-44 -35 -80 -40 -80 -4 0 -15 7 -23 16 -9 8 -16 12 -16 8 0 -4 -13 12 -29 37
-17 24 -41 53 -55 63 -15 10 -26 26 -26 35 0 10 -5 22 -11 28 -13 13 -21 83
-9 83 5 0 7 6 4 13 -3 8 0 26 5 41 9 21 8 28 -3 32 -11 4 -12 12 -7 27 6 14 4
32 -5 49 -13 25 -29 223 -28 343 0 51 10 124 20 159 12 38 -21 9 -45 -40 -17
-35 -25 -69 -26 -119 -1 -38 -3 -72 -5 -75 -6 -11 3 -45 17 -67 12 -18 13 -26
4 -37 -9 -10 -8 -15 4 -20 22 -8 20 -47 -2 -39 -13 5 -12 1 4 -13 17 -14 21
-25 17 -42 -5 -18 -9 -20 -15 -10 -12 19 -11 30 3 22 7 -4 8 -3 4 4 -9 15 -36
4 -36 -14 0 -8 4 -14 10 -14 17 0 45 -111 54 -210 3 -41 24 -109 39 -127 5 -7
6 -13 1 -13 -4 0 0 -6 11 -13 10 -8 15 -19 11 -25 -4 -7 -2 -13 3 -13 6 -1 15
-2 20 -3 5 0 13 -5 18 -10 5 -5 3 -6 -4 -2 -24 13 -13 -19 12 -39 14 -11 37
-30 51 -41 l25 -22 -25 -53 c-14 -30 -102 -229 -196 -444 -94 -214 -178 -403
-185 -420 -30 -67 -114 -261 -190 -435 -53 -122 -59 -137 -98 -220 -19 -41
-64 -142 -100 -225 -98 -226 -155 -353 -188 -423 -16 -35 -29 -65 -29 -68 0
-3 -13 -33 -29 -67 -16 -34 -41 -91 -56 -127 -29 -71 -187 -426 -210 -475 -8
-16 -43 -97 -79 -180 -35 -82 -88 -202 -116 -265 -109 -242 -161 -370 -155
-380 4 -7 13 -6 27 1 27 15 1012 6 2078 -17 284 -7 2474 -7 2640 -1 43 2 55 6
58 20 2 9 -3 17 -10 17 -8 0 -39 53 -71 117 -62 128 -151 299 -184 354 -11 19
-63 117 -116 219 -52 102 -125 244 -163 315 -37 72 -96 183 -130 249 -34 65
-68 126 -75 135 -8 9 -14 21 -14 26 -1 18 -28 65 -37 65 -5 0 -7 4 -3 9 3 6
-1 13 -9 18 -15 8 -16 11 -16 36 0 7 -10 24 -22 37 -13 14 -22 26 -20 27 8 9
0 23 -10 17 -6 -4 -8 -3 -5 4 10 15 -3 43 -16 35 -5 -3 -7 -1 -4 4 8 13 -40
103 -54 103 -6 0 -8 4 -5 9 3 4 -3 19 -14 31 -11 13 -20 31 -20 41 0 10 -8 25
-17 35 -10 9 -18 24 -20 33 -1 8 -7 17 -13 19 -5 2 -8 8 -4 13 3 5 -4 22 -15
38 -12 16 -21 34 -21 40 0 6 -4 11 -10 11 -5 0 -10 6 -10 13 0 26 -31 77 -43
71 -7 -4 -9 -4 -5 1 8 8 -29 84 -46 96 -5 4 -6 11 -3 17 4 5 -2 17 -13 27 -11
10 -20 27 -20 37 0 12 -4 16 -12 12 -7 -4 -8 -3 -4 4 7 11 -11 51 -27 63 -5 3
-8 8 -7 10 4 11 -14 38 -22 33 -6 -4 -4 4 3 17 12 23 11 23 -6 9 -10 -8 -16
-10 -12 -3 10 16 -3 44 -16 36 -6 -4 -8 0 -4 11 4 10 3 15 -3 11 -6 -3 -10 -3
-11 2 -3 30 -10 49 -21 58 -7 5 -13 17 -13 25 0 8 -5 14 -11 13 -7 -1 -10 6
-7 17 3 12 -5 28 -23 46 -16 15 -23 24 -17 20 9 -5 11 -2 7 8 -3 8 -12 17 -20
20 -8 3 -14 11 -14 18 0 9 3 8 10 -2 5 -8 10 -12 10 -9 0 10 -51 99 -56 99 -3
0 -2 -5 2 -12 5 -7 3 -8 -5 -4 -7 5 -10 15 -7 23 3 8 1 11 -4 8 -10 -6 -14 7
-11 34 2 7 -2 10 -8 7 -5 -4 -12 -2 -16 4 -3 5 0 10 7 10 9 1 7 5 -4 14 -10 7
-15 16 -11 19 3 4 1 7 -6 7 -7 0 -9 5 -6 10 3 6 1 10 -5 10 -6 0 -8 5 -5 10 3
6 1 10 -4 10 -6 0 -10 3 -10 8 4 21 -2 32 -13 26 -7 -5 -9 -2 -5 9 3 8 -1 21
-8 27 -8 7 -12 16 -9 21 3 5 0 8 -7 7 -6 -2 -14 3 -17 11 -3 9 0 11 8 6 8 -5
11 -3 8 6 -3 8 -10 14 -16 14 -5 0 -14 3 -18 8 -4 4 -1 7 6 7 9 0 5 9 -10 25
-13 14 -19 25 -14 25 5 0 1 5 -8 11 -10 5 -18 17 -18 24 0 8 -4 15 -9 15 -15
0 -22 33 -9 43 9 6 8 7 -4 3 -14 -4 -18 1 -18 24 0 16 -11 41 -25 58 -14 17
-25 35 -25 41 0 6 -4 11 -9 11 -10 0 -24 34 -25 60 -1 8 -7 14 -14 12 -8 -1
-11 2 -8 7 3 5 -1 14 -9 21 -8 7 -12 16 -9 21 3 5 0 9 -6 9 -6 0 -8 5 -5 10 3
6 2 10 -4 10 -5 0 -8 9 -6 20 2 11 0 18 -4 15 -10 -6 -25 24 -22 44 1 7 -2 10
-8 6 -7 -3 -8 0 -5 9 3 9 2 16 -3 16 -5 0 -10 6 -11 13 0 6 -4 23 -8 37 -6 21
-5 23 7 14 8 -7 26 -12 41 -12 14 0 46 -9 70 -20 24 -11 61 -24 83 -28 22 -3
46 -11 53 -17 7 -5 25 -11 40 -13 22 -2 32 5 59 44 17 26 35 56 39 67 4 11 20
38 36 59 31 43 36 87 17 162 -9 33 -24 56 -63 91 -28 25 -66 52 -85 60 l-33
14 46 30 c26 16 51 29 55 29 5 0 12 7 15 16 4 11 13 13 27 9 18 -6 21 -4 16 9
-5 11 1 18 21 22 15 4 36 13 47 19 77 47 175 113 205 137 19 15 38 28 43 28 4
0 50 35 103 78 52 42 118 96 147 119 52 42 218 129 292 153 22 7 42 16 45 20
4 6 120 51 168 66 21 6 13 24 -10 23 -13 0 -57 -10 -98 -20z m-1933 -191 c31
-34 49 -125 33 -172 -6 -20 -18 -36 -26 -36 -8 0 -27 -14 -42 -31 -22 -24 -38
-32 -75 -35 -55 -5 -112 17 -120 46 -20 76 46 219 113 243 39 14 97 7 117 -15z
m63 -26 c0 -15 -2 -15 -10 -2 -13 20 -13 33 0 25 6 -3 10 -14 10 -23z m100 6
c0 -5 12 -20 26 -33 26 -25 26 -25 8 -52 -10 -16 -26 -41 -35 -57 -16 -31 -39
-46 -39 -26 0 6 -9 31 -20 55 -28 61 -33 123 -11 127 26 5 71 -3 71 -14z
m-447 -117 c-4 -9 -11 -23 -18 -31 -6 -8 -42 -87 -79 -175 -37 -88 -79 -183
-92 -212 -13 -28 -24 -57 -24 -62 0 -6 -4 -11 -8 -11 -5 0 -8 27 -6 60 1 34
-2 58 -7 54 -5 -3 -9 5 -9 16 0 15 5 20 15 17 8 -4 17 -1 21 5 5 7 3 8 -5 3
-10 -5 -12 13 -9 78 2 47 -1 85 -6 84 -4 -1 -10 6 -11 16 -2 9 1 15 6 11 14
-8 10 6 -6 22 -19 19 -19 35 -1 28 9 -3 21 5 31 20 10 14 23 26 29 26 13 0
117 52 149 75 24 17 39 3 30 -24z m576 2 c20 -14 38 -28 40 -30 7 -5 9 -133 2
-128 -4 2 -15 -5 -25 -16 -13 -16 -15 -24 -5 -35 10 -12 13 -12 24 2 10 14 11
-1 8 -77 -2 -52 -5 -100 -8 -106 -7 -21 -19 -15 -33 17 -8 17 -18 28 -23 25
-5 -4 -6 2 -2 11 4 11 2 15 -4 11 -6 -4 -10 3 -10 18 0 28 -27 73 -49 82 -8 3
-14 9 -14 15 0 5 5 6 11 2 8 -4 7 0 -1 15 -6 12 -15 19 -21 16 -5 -4 -9 -1 -9
4 0 6 6 11 13 11 7 0 4 7 -7 15 -11 8 -16 15 -10 15 5 0 3 4 -5 9 -16 10 -6
52 12 48 6 -1 11 3 12 8 1 17 50 95 59 95 5 0 25 -12 45 -27z m1066 -23 c-3
-5 -12 -10 -18 -10 -7 0 -6 4 3 10 19 12 23 12 15 0z m-1635 -26 c0 -3 -5 -25
-11 -49 l-11 -44 67 -108 c38 -59 79 -125 92 -146 13 -21 21 -43 17 -49 -4 -6
-3 -8 3 -5 14 9 26 -22 15 -37 -10 -12 -176 -330 -201 -383 -8 -18 -21 -33
-29 -33 -7 0 -10 -5 -7 -10 4 -6 -9 -38 -28 -73 -19 -34 -58 -107 -87 -162
-29 -55 -72 -134 -95 -175 -23 -41 -70 -131 -105 -200 -35 -69 -73 -141 -85
-160 -12 -19 -40 -71 -62 -116 -23 -44 -51 -98 -64 -120 -44 -79 -67 -121
-117 -214 -71 -136 -107 -202 -170 -315 -30 -55 -77 -143 -105 -195 -27 -52
-53 -99 -57 -105 -4 -5 -31 -55 -60 -110 -29 -55 -71 -134 -93 -175 -23 -41
-50 -93 -60 -114 -11 -22 -67 -128 -126 -235 -59 -108 -128 -234 -153 -281
-118 -222 -281 -520 -284 -520 -3 0 3 16 11 35 8 19 22 52 31 72 8 21 23 56
33 78 10 22 47 105 81 185 34 80 70 163 80 185 10 22 55 125 100 230 45 104
90 208 100 231 11 22 69 155 131 295 61 140 142 322 179 404 37 83 98 220 135
305 37 85 79 180 92 210 14 30 49 111 78 180 29 69 62 146 73 170 77 171 122
273 174 395 32 77 82 192 110 255 76 171 85 193 92 213 3 10 10 16 15 13 5 -3
7 4 3 16 -3 13 -1 19 5 15 12 -8 26 20 17 34 -3 5 0 9 5 9 6 0 11 11 11 25 0
14 4 25 8 25 4 0 8 9 9 20 1 11 20 61 43 112 23 51 49 109 57 128 8 19 25 58
38 85 13 28 30 66 38 85 8 19 23 53 33 75 9 22 16 43 16 48 -1 4 3 7 8 7 6 0
10 -3 10 -6z m385 -66 c20 -40 64 -129 100 -197 36 -69 65 -130 65 -135 0 -6
-9 -22 -20 -36 -64 -81 -100 -130 -95 -130 2 0 -7 -20 -20 -45 -14 -24 -26
-56 -27 -70 l-2 -26 -18 23 c-10 13 -18 27 -18 31 0 5 -11 23 -25 41 -14 18
-25 35 -25 38 0 3 -49 84 -110 179 -153 244 -191 309 -184 321 4 7 10 5 16 -5
17 -30 98 -77 134 -77 72 0 168 68 180 129 4 17 8 31 10 31 2 0 20 -33 39 -72z
m728 -328 c23 -11 63 -40 88 -64 44 -42 47 -48 51 -108 3 -44 1 -67 -9 -76 -7
-7 -13 -22 -13 -33 0 -30 -18 -22 -33 14 -8 17 -23 39 -33 48 -25 21 -136 59
-174 59 -27 0 -29 2 -20 25 5 14 28 50 50 80 23 31 38 60 35 65 -10 16 11 12
58 -10z m-818 -210 c44 -76 73 -135 69 -142 -4 -7 -15 -22 -24 -33 -27 -31
-53 -120 -45 -155 7 -31 51 -78 120 -128 30 -21 50 -28 73 -26 44 5 56 8 62
15 3 4 22 18 42 31 20 14 55 47 78 74 96 113 115 133 121 126 4 -4 37 -65 75
-137 37 -71 78 -150 92 -175 13 -25 47 -88 74 -140 28 -52 71 -133 96 -180 25
-47 83 -157 130 -245 46 -88 130 -245 187 -350 56 -104 122 -228 147 -275 25
-47 111 -208 192 -358 80 -149 192 -359 247 -465 169 -320 211 -400 239 -447
14 -25 59 -110 99 -190 41 -80 87 -169 103 -198 16 -30 28 -56 25 -58 -5 -6
-132 192 -132 206 0 3 -10 17 -23 30 -12 14 -25 35 -28 47 -4 13 -10 23 -14
23 -5 0 -11 14 -15 31 -4 17 -9 28 -12 25 -3 -3 -16 17 -30 44 -13 27 -35 60
-49 72 -13 13 -24 27 -24 32 0 5 -11 23 -24 40 -13 17 -24 36 -26 41 -1 6 -16
27 -32 48 -16 20 -26 37 -21 37 4 0 3 4 -2 8 -16 11 -65 87 -65 100 0 7 -4 12
-10 12 -5 0 -10 4 -10 9 0 6 -13 29 -28 53 -15 24 -37 60 -47 80 -10 20 -22
35 -26 33 -3 -3 -14 15 -24 40 -10 24 -22 42 -27 39 -4 -3 -8 4 -8 14 0 11 -7
23 -16 26 -9 4 -14 9 -11 13 8 7 -24 63 -36 63 -4 0 -6 4 -3 9 3 5 -1 11 -9
15 -8 3 -15 15 -15 26 0 11 -7 23 -15 26 -8 4 -15 12 -15 18 0 7 -8 21 -17 32
-10 11 -19 26 -21 34 -2 8 -8 20 -14 25 -8 7 -8 6 -3 -4 5 -9 4 -12 -3 -7 -7
4 -12 15 -12 25 0 10 -7 24 -15 31 -8 7 -15 22 -15 34 0 17 -2 18 -10 6 -6
-10 -10 -11 -10 -2 0 17 -3 26 -12 37 -5 6 -18 22 -31 37 -12 15 -31 44 -42
65 -11 21 -25 42 -32 46 -7 4 -13 12 -13 18 0 5 -25 49 -57 97 -31 48 -69 107
-84 131 -16 24 -26 48 -22 54 3 6 1 7 -5 3 -7 -4 -13 -2 -13 3 -1 6 -2 15 -3
19 0 5 -9 16 -18 26 -10 10 -18 24 -18 32 0 8 -5 14 -12 14 -6 0 -9 3 -5 6 3
3 -2 15 -12 25 -10 11 -24 32 -32 47 -8 15 -22 36 -32 47 -10 10 -15 25 -13
32 3 7 -3 17 -12 22 -9 6 -12 11 -7 11 6 0 0 8 -13 18 -13 10 -24 26 -26 36
-1 10 -7 21 -12 24 -5 4 -10 13 -12 21 -2 8 -16 33 -31 55 -78 115 -101 154
-101 169 0 8 -9 18 -19 22 -11 3 -22 19 -26 36 -4 17 -11 26 -18 22 -6 -4 -8
0 -5 9 4 8 -3 26 -16 39 -37 42 -86 112 -86 126 0 7 -5 13 -11 13 -5 0 -7 5
-4 10 3 6 1 10 -4 10 -6 0 -11 5 -11 11 0 6 -13 31 -30 56 -16 24 -30 46 -30
49 0 11 -53 74 -61 74 -20 0 -17 -6 201 -355 20 -33 153 -247 295 -475 142
-228 278 -448 304 -487 25 -40 102 -163 171 -274 209 -336 281 -450 335 -534
28 -44 71 -113 96 -153 24 -40 51 -84 59 -97 8 -13 44 -70 79 -127 35 -56 96
-155 135 -218 39 -63 77 -124 83 -135 77 -127 217 -351 293 -470 32 -49 56
-92 54 -95 -3 -2 -19 4 -37 13 -18 9 -63 28 -102 42 -38 14 -71 30 -73 35 -2
6 -16 10 -30 10 -15 1 -38 7 -52 15 -14 8 -35 14 -47 15 -12 0 -28 6 -35 13
-7 6 -22 14 -33 15 -11 2 -47 14 -80 26 -33 13 -87 31 -120 41 -33 10 -100 31
-148 47 -145 48 -338 96 -577 143 -97 19 -96 19 -245 40 -162 23 -172 24 -265
30 -47 3 -110 7 -140 10 -30 3 -86 8 -125 10 -87 6 -417 6 -423 0 -3 -2 -13 0
-23 6 -11 5 -19 6 -19 1 0 -4 -8 -8 -17 -8 -62 -3 -207 -14 -240 -19 -21 -3
-85 -10 -143 -15 -58 -5 -116 -11 -130 -14 -13 -3 -42 -8 -65 -11 -22 -4 -51
-8 -65 -10 -37 -6 -202 -34 -226 -39 -12 -2 -39 -7 -60 -11 -38 -5 -87 -17
-149 -35 -16 -5 -109 -29 -205 -55 -96 -26 -182 -49 -190 -52 -8 -4 -19 -7
-25 -9 -19 -5 -220 -75 -240 -84 -141 -61 -309 -129 -313 -125 -3 2 42 89 98
192 57 104 128 235 158 293 30 58 68 127 85 153 17 26 32 53 33 60 1 7 23 49
48 93 25 45 46 84 46 87 0 12 112 202 123 209 6 4 9 10 5 13 -4 4 7 29 22 56
16 27 48 85 71 130 24 44 51 85 61 90 10 6 16 14 13 19 -8 13 97 221 131 261
8 8 14 21 14 27 0 6 14 35 31 64 17 29 50 87 71 128 85 158 132 246 150 275
10 17 18 38 18 48 0 9 4 17 10 17 5 0 29 39 52 88 24 48 46 89 51 90 4 2 5 8
1 13 -3 5 0 9 5 9 6 0 11 7 11 15 0 8 5 15 10 15 6 0 10 6 10 14 0 22 26 66
35 58 5 -4 5 -2 1 5 -7 13 12 53 31 66 7 4 10 14 7 22 -4 8 0 17 9 20 8 4 20
24 27 46 7 21 16 39 20 39 3 0 12 16 20 35 8 19 18 35 24 35 5 0 6 3 3 6 -7 8
23 64 35 64 4 0 4 7 1 17 -4 11 -3 14 5 9 8 -5 12 0 12 13 0 12 5 21 11 21 5
0 7 5 4 10 -3 6 -2 10 3 10 4 0 14 16 22 35 8 19 17 35 21 35 4 0 14 19 24 43
9 23 28 62 43 87 15 25 27 47 27 50 4 22 18 50 26 50 6 0 8 4 4 9 -3 5 -1 12
4 15 5 4 23 35 40 70 31 63 64 110 72 101 3 -2 6 5 6 17 4 45 83 184 98 170 5
-4 5 -2 1 5 -6 10 56 148 73 163 3 3 14 21 23 40 18 36 67 125 81 148 5 7 12
10 17 7 4 -3 42 -63 85 -135z m792 5 c68 -23 80 -32 92 -66 16 -47 13 -83 -9
-112 -11 -14 -20 -34 -20 -45 0 -19 -3 -18 -71 9 -39 16 -77 29 -83 29 -8 0
-11 11 -8 30 5 37 -13 40 -22 4 -6 -23 -10 -25 -34 -18 -15 4 -44 10 -64 13
l-38 6 50 75 c28 41 56 82 62 91 12 18 61 13 145 -16z m-82 -555 c3 -5 1 -10
-4 -10 -6 0 -11 5 -11 10 0 6 2 10 4 10 3 0 8 -4 11 -10z m-202 -2857 c-7 -2
-21 -2 -30 0 -10 3 -4 5 12 5 17 0 24 -2 18 -5z m-198 -17 c17 -3 59 -8 95
-11 36 -3 108 -12 160 -20 52 -7 124 -17 160 -21 36 -4 67 -8 70 -9 3 -1 30
-5 60 -9 30 -4 98 -16 150 -27 52 -11 106 -22 120 -25 14 -3 59 -13 100 -24
41 -10 129 -31 195 -45 66 -15 134 -33 152 -41 17 -8 42 -14 55 -14 12 0 61
-14 108 -30 47 -17 96 -33 110 -36 14 -3 38 -12 54 -20 43 -21 69 -19 61 5 -5
16 -2 18 15 14 11 -3 20 -10 20 -15 0 -6 6 -8 14 -5 7 3 17 2 22 -3 5 -4 27
-13 49 -20 22 -7 67 -25 100 -40 33 -15 77 -32 98 -39 20 -7 37 -17 37 -21 0
-5 -105 -11 -232 -12 -296 -4 -2853 2 -2933 7 -33 2 -330 4 -659 5 -330 0
-619 4 -643 7 l-44 6 68 32 c150 69 327 135 488 180 428 120 469 130 735 170
91 14 172 27 180 30 8 2 49 7 90 10 41 4 89 8 105 10 17 2 77 7 135 11 58 3
107 8 109 10 6 6 558 -4 596 -10z m308 7 c-7 -2 -21 -2 -30 0 -10 3 -4 5 12 5
17 0 24 -2 18 -5z m85 -10 c-10 -2 -28 -2 -40 0 -13 2 -5 4 17 4 22 1 32 -1
23 -4z m132 -13 c16 -6 6 -7 -30 -3 -30 3 -57 7 -59 9 -8 7 64 2 89 -6z m128
-20 c40 -7 71 -14 69 -17 -8 -8 -167 19 -167 28 0 5 6 7 13 4 6 -2 45 -9 85
-15z m1267 -40 c22 -42 18 -51 -5 -12 -20 33 -24 42 -15 42 2 0 11 -13 20 -30z
m-1032 -4 c67 -14 158 -36 202 -49 44 -14 95 -28 112 -32 18 -4 36 -11 40 -17
4 -8 0 -9 -13 -4 -10 4 -32 10 -49 13 -16 2 -50 11 -75 19 -25 7 -94 25 -155
38 -241 54 -286 76 -62 32z m447 -122 c25 -8 68 -22 97 -31 29 -9 51 -19 48
-21 -7 -7 -225 62 -225 72 0 4 8 5 18 1 9 -4 37 -13 62 -21z m238 -78 c28 -10
52 -22 52 -27 0 -13 0 -13 -71 22 -68 32 -66 32 19 5z"/>
<path d="M2715 6081 c-3 -5 -1 -12 5 -16 5 -3 10 1 10 9 0 18 -6 21 -15 7z"/>
<path d="M2920 3073 c-30 -1 -83 -5 -117 -9 -58 -5 -63 -7 -63 -30 0 -21 4
-24 39 -24 21 0 43 -6 50 -13 16 -20 54 -523 41 -547 -7 -13 -21 -20 -40 -20
-26 0 -30 -4 -30 -28 l0 -28 63 3 c354 20 396 30 472 115 67 74 89 141 89 269
1 98 -1 110 -29 165 -22 43 -43 68 -79 91 -88 59 -158 69 -396 56z m241 -76
c56 -30 85 -80 99 -174 22 -140 -22 -298 -95 -343 -19 -12 -59 -24 -88 -27
l-54 -5 -7 178 c-3 99 -9 227 -13 287 l-6 107 60 0 c43 0 72 -6 104 -23z"/>
<path d="M4080 3010 c0 -21 4 -24 53 -34 24 -6 27 -11 27 -49 -1 -51 -65 -501
-75 -516 -3 -6 -24 -11 -46 -11 -35 0 -39 -3 -39 -25 0 -14 3 -25 8 -25 4 0
70 -11 147 -24 140 -24 154 -23 155 11 0 6 -16 17 -35 23 -30 10 -35 16 -35
43 0 40 31 220 40 230 6 7 226 -35 236 -46 6 -5 -44 -214 -57 -239 -8 -15 -19
-19 -47 -16 -33 3 -37 1 -37 -21 0 -18 7 -27 25 -31 14 -4 76 -21 138 -38
l113 -31 9 22 c7 18 3 24 -21 35 -17 7 -32 19 -36 28 -8 22 135 505 157 528
16 16 23 17 51 7 25 -9 34 -8 41 1 13 21 9 36 -9 42 -83 24 -326 86 -328 84
-1 -2 -5 -12 -9 -24 -5 -17 0 -22 31 -30 31 -7 39 -14 41 -37 3 -24 -36 -217
-43 -217 -10 0 -240 52 -243 54 -7 8 32 193 45 215 13 20 20 22 53 17 33 -5
38 -3 43 16 4 12 5 23 4 24 -4 5 -311 54 -334 54 -16 0 -23 -6 -23 -20z"/>
<path d="M1873 2925 c-147 -40 -242 -135 -259 -258 -20 -143 95 -356 225 -419
154 -75 409 38 377 167 -9 34 -20 31 -46 -10 -53 -86 -189 -118 -263 -62 -64
48 -147 256 -147 366 0 86 63 153 145 155 48 1 69 -13 96 -65 18 -36 21 -37
48 -28 77 27 94 104 32 146 -40 27 -124 30 -208 8z"/>
<path d="M2330 6220 c0 -11 4 -20 9 -20 5 0 7 9 4 20 -3 11 -7 20 -9 20 -2 0
-4 -9 -4 -20z"/>
<path d="M3550 5639 c19 -51 63 -109 84 -109 5 0 -4 15 -21 33 -17 17 -34 46
-38 63 -3 18 -15 40 -25 49 -19 17 -19 16 0 -36z"/>
<path d="M3504 5587 c-3 -10 -1 -29 6 -42 22 -41 71 -95 86 -95 10 0 4 14 -20
43 -20 24 -42 59 -50 78 -12 28 -16 31 -22 16z"/>
</g>
</svg>
