<?xml version="1.0" standalone="no"?>
<!DOCTYPE svg PUBLIC "-//W3C//DTD SVG 20010904//EN"
 "http://www.w3.org/TR/2001/REC-SVG-20010904/DTD/svg10.dtd">
<svg version="1.0" xmlns="http://www.w3.org/2000/svg"
 width="695.000000pt" height="934.000000pt" viewBox="0 0 695.000000 934.000000"
 preserveAspectRatio="xMidYMid meet">
<metadata>
Created by potrace 1.16, written by Peter Selinger 2001-2019
</metadata>
<g transform="translate(0.000000,934.000000) scale(0.100000,-0.100000)"
fill="#000000" stroke="none">
<path d="M0 4670 l0 -4670 3475 0 3475 0 0 4670 0 4670 -3475 0 -3475 0 0
-4670z m5010 2890 c-13 -10 -36 -21 -50 -23 -14 -3 -63 -23 -110 -45 -84 -39
-172 -69 -470 -158 -198 -59 -217 -63 -261 -64 -20 0 -39 -3 -43 -7 -4 -4 -24
-6 -44 -5 -28 2 -33 0 -22 -7 11 -8 1 -11 -40 -13 -30 0 -77 -3 -105 -5 -27
-2 -157 -3 -287 -3 -243 0 -256 -1 -370 -45 -11 -4 -18 -3 -18 4 0 6 7 11 15
11 9 0 18 7 21 15 4 8 12 15 19 15 7 0 15 4 17 9 2 5 37 12 78 15 41 2 95 7
120 10 24 2 66 0 93 -5 27 -5 53 -6 59 -3 5 3 85 7 177 8 92 1 172 6 179 10 7
4 42 9 79 11 91 6 128 12 193 30 68 19 69 19 103 33 16 7 34 12 41 12 6 0 16
4 22 9 10 10 130 41 157 41 9 0 17 5 17 10 0 6 10 10 23 10 13 0 28 5 34 11 6
6 25 13 44 16 18 2 74 24 123 48 141 67 210 93 221 83 6 -6 1 -16 -15 -28z
m-1856 -425 c-22 -21 -57 -55 -80 -76 -22 -22 -45 -39 -52 -39 -7 0 -12 -4
-12 -9 0 -5 -26 -28 -57 -52 -32 -24 -59 -47 -61 -51 -2 -5 -9 -8 -15 -8 -7 0
-18 -9 -25 -20 -7 -11 -16 -20 -21 -20 -5 0 -23 -12 -39 -27 -31 -30 -120 -95
-137 -102 -5 -2 -28 -19 -50 -38 -50 -43 -54 -46 -90 -68 -17 -10 -42 -30 -57
-43 -14 -13 -32 -22 -38 -20 -6 2 6 18 27 36 59 51 244 192 267 204 11 6 58
43 105 82 47 40 98 81 112 91 143 108 178 137 184 155 3 11 10 18 15 15 4 -3
15 7 25 21 11 18 20 23 27 16 7 -7 -2 -22 -28 -47z m2106 -465 c0 -6 -6 -12
-12 -14 -48 -15 -164 -60 -168 -66 -3 -4 -23 -13 -45 -20 -74 -24 -240 -111
-292 -153 -29 -23 -95 -77 -147 -119 -53 -43 -99 -78 -103 -78 -5 0 -24 -13
-43 -28 -30 -24 -128 -90 -205 -137 -11 -6 -32 -15 -47 -19 -20 -4 -26 -11
-21 -22 5 -13 2 -15 -16 -9 -14 4 -23 2 -27 -9 -3 -9 -10 -16 -15 -16 -4 0
-29 -13 -55 -29 l-46 -30 33 -14 c19 -8 57 -35 85 -60 39 -35 54 -58 63 -91
19 -75 14 -119 -17 -162 -16 -21 -32 -48 -36 -59 -4 -11 -22 -41 -39 -67 -27
-39 -37 -46 -59 -44 -15 2 -33 8 -40 13 -7 6 -31 14 -53 17 -22 4 -59 17 -83
28 -24 11 -56 20 -70 20 -15 0 -33 5 -41 12 -12 9 -13 7 -7 -14 4 -14 8 -31 8
-37 1 -7 6 -13 11 -13 5 0 6 -7 3 -16 -3 -9 -2 -12 5 -9 6 4 9 1 8 -6 -3 -20
12 -50 22 -44 4 3 6 -4 4 -15 -2 -11 1 -20 6 -20 6 0 7 -4 4 -10 -3 -5 -1 -10
5 -10 6 0 9 -4 6 -9 -3 -5 1 -14 9 -21 8 -7 12 -16 9 -21 -3 -5 0 -8 8 -7 7 2
13 -4 14 -12 1 -26 15 -60 25 -60 5 0 9 -5 9 -11 0 -6 11 -24 25 -41 14 -17
25 -42 25 -58 0 -23 4 -28 18 -24 12 4 13 3 4 -3 -13 -10 -6 -43 9 -43 5 0 9
-7 9 -15 0 -7 8 -19 18 -24 9 -6 13 -11 8 -11 -5 0 1 -11 14 -25 15 -16 19
-25 10 -25 -7 0 -10 -3 -6 -7 4 -5 13 -8 18 -8 6 0 13 -6 16 -14 3 -9 0 -11
-8 -6 -8 5 -11 3 -8 -6 3 -8 11 -13 17 -11 7 1 10 -2 7 -7 -3 -5 1 -14 9 -21
7 -6 11 -19 8 -27 -4 -11 -2 -14 5 -9 11 6 17 -5 13 -26 0 -5 4 -8 10 -8 5 0
7 -4 4 -10 -3 -5 -1 -10 5 -10 6 0 8 -4 5 -10 -3 -5 -1 -10 6 -10 7 0 9 -3 6
-7 -4 -3 1 -12 11 -19 11 -9 13 -13 4 -14 -7 0 -10 -5 -7 -10 4 -6 11 -8 16
-4 6 3 10 0 8 -7 -3 -27 1 -40 11 -34 5 3 7 0 4 -8 -3 -8 0 -18 7 -23 8 -4 10
-3 5 4 -4 7 -5 12 -2 12 5 0 56 -89 56 -99 0 -3 -5 1 -10 9 -7 10 -10 11 -10
2 0 -7 6 -15 14 -18 8 -3 17 -12 20 -20 4 -10 2 -13 -7 -8 -6 4 1 -5 17 -20
18 -18 26 -34 23 -46 -3 -11 0 -18 7 -17 6 1 11 -5 11 -13 0 -8 6 -20 13 -25
11 -9 18 -28 21 -58 1 -5 5 -5 11 -2 6 4 7 -1 3 -11 -4 -11 -2 -15 4 -11 13 8
26 -20 16 -36 -4 -7 2 -5 12 3 17 14 18 14 6 -9 -7 -13 -9 -21 -3 -17 8 5 26
-22 22 -33 -1 -2 2 -7 7 -10 16 -12 34 -52 27 -63 -4 -7 -3 -8 4 -4 8 4 12 0
12 -12 0 -10 9 -27 20 -37 11 -10 17 -22 13 -27 -3 -6 -2 -13 3 -17 17 -12 54
-88 46 -96 -4 -5 -2 -5 5 -1 12 6 43 -45 43 -71 0 -7 5 -13 10 -13 6 0 10 -5
10 -11 0 -6 9 -24 21 -40 11 -16 18 -33 15 -38 -4 -5 -1 -11 4 -13 6 -2 12
-11 13 -19 2 -9 10 -24 20 -33 9 -10 17 -25 17 -35 0 -10 9 -28 20 -41 11 -12
17 -27 14 -31 -3 -5 -1 -9 5 -9 14 0 62 -90 54 -103 -3 -5 -1 -7 4 -4 13 8 26
-20 16 -35 -3 -7 -1 -8 5 -4 10 6 18 -8 10 -17 -2 -1 7 -13 20 -27 12 -13 22
-30 22 -37 0 -25 1 -28 16 -36 8 -5 12 -12 9 -18 -4 -5 -2 -9 3 -9 9 0 36 -47
37 -65 0 -5 6 -17 14 -26 7 -9 41 -70 75 -135 34 -66 93 -177 130 -249 38 -71
111 -213 163 -315 53 -102 105 -200 116 -219 33 -55 122 -226 184 -354 32 -64
63 -117 71 -117 7 0 12 -8 10 -17 -3 -14 -15 -18 -58 -20 -166 -6 -2356 -6
-2640 1 -1066 23 -2051 32 -2078 17 -14 -7 -23 -8 -27 -1 -6 10 46 138 155
380 28 63 81 183 116 265 36 83 71 164 79 180 23 49 181 404 210 475 15 36 40
93 56 127 16 34 29 64 29 67 0 3 13 33 29 68 33 70 90 197 188 423 36 83 81
184 100 225 39 83 45 98 98 220 76 174 160 368 190 435 7 17 91 206 185 420
94 215 182 414 196 444 l25 53 -25 22 c-14 11 -37 30 -51 41 -25 20 -36 52
-12 39 7 -4 9 -3 4 2 -5 5 -13 10 -18 10 -5 1 -14 2 -20 3 -5 0 -7 6 -3 13 4
6 -1 17 -11 25 -11 7 -15 13 -11 13 5 0 4 6 -1 13 -15 18 -36 86 -39 127 -9
99 -37 210 -54 210 -6 0 -10 6 -10 14 0 18 27 29 36 14 4 -7 3 -8 -4 -4 -14 8
-15 -3 -3 -22 6 -10 10 -8 15 10 4 17 0 28 -17 42 -16 14 -17 18 -4 13 22 -8
24 31 2 39 -12 5 -13 10 -4 20 9 11 8 19 -4 37 -14 22 -23 56 -17 67 2 3 4 37
5 75 1 50 9 84 26 119 24 49 57 78 45 40 -10 -35 -20 -108 -20 -159 -1 -120
15 -318 28 -343 9 -17 11 -35 5 -49 -5 -15 -4 -23 7 -27 11 -4 12 -11 3 -32
-5 -15 -8 -33 -5 -41 3 -7 1 -13 -4 -13 -12 0 -4 -70 9 -83 6 -6 11 -18 11
-28 0 -9 11 -25 26 -35 14 -10 38 -39 55 -63 16 -25 29 -41 29 -37 0 4 7 0 16
-8 8 -9 19 -16 23 -16 5 0 22 36 40 80 26 67 31 90 29 152 -2 54 0 72 10 70 6
-1 12 2 12 6 0 17 -12 21 -37 11 -17 -6 -30 -5 -42 3 -17 12 -17 14 7 33 62
50 65 55 58 99 -16 115 -85 278 -122 293 -21 8 -17 19 8 20 35 3 57 -15 64
-55 4 -20 9 -31 12 -23 4 11 6 11 13 0 7 -11 9 -10 9 4 0 10 4 16 9 12 10 -5
126 69 158 100 18 18 27 19 17 3 -4 -7 3 -3 15 10 12 12 27 22 34 22 7 0 18 9
25 20 7 12 17 18 22 15 5 -3 16 7 24 22 13 24 15 25 16 7 0 -11 -9 -30 -20
-42 -30 -32 -14 -27 23 7 18 16 45 40 61 53 18 15 29 34 29 50 0 15 5 29 12
32 11 4 81 -36 95 -54 12 -16 73 -38 94 -34 13 2 29 -2 35 -10 7 -8 21 -12 32
-9 20 6 114 -25 105 -34 -3 -3 5 -14 17 -23 12 -10 18 -22 14 -26 -4 -5 -11
-4 -15 2 -4 6 -18 17 -32 24 -35 17 -16 1 59 -54 68 -49 81 -49 81 5 0 14 6
33 13 43 21 29 24 4 16 -109 -5 -55 -11 -154 -14 -220 -6 -117 -6 -119 11 -95
27 37 115 122 121 116 6 -5 -71 -116 -106 -153 -12 -12 -21 -26 -21 -30 0 -5
-9 -15 -20 -23 -11 -8 -20 -18 -20 -22 0 -4 -14 -22 -30 -40 -42 -46 -130
-177 -130 -194 0 -8 -4 -14 -8 -14 -5 0 -16 -26 -26 -57 -10 -32 -33 -83 -52
-113 -18 -30 -36 -74 -40 -96 -6 -38 -3 -45 31 -83 21 -22 43 -41 49 -41 7 0
23 -11 35 -24 19 -20 28 -22 56 -16 76 17 239 183 310 315 20 39 43 77 51 86
16 18 84 128 84 136 0 3 18 33 40 66 30 44 38 63 30 72 -8 10 -6 15 7 19 10 3
22 5 26 5 5 0 28 16 53 36 25 20 50 38 58 39 7 1 35 15 62 32 27 16 65 38 84
48 60 33 169 107 206 142 19 19 39 34 43 34 4 0 13 12 19 26 24 51 93 124 76
79 -8 -21 -2 -19 31 9 15 13 40 30 54 37 34 18 83 54 127 95 20 18 57 43 83
56 25 12 48 26 49 31 2 4 10 7 17 7 8 0 31 7 52 16 21 9 47 21 58 25 31 13
167 47 193 48 12 1 22 -4 22 -9z m-2917 -450 c3 -11 1 -20 -4 -20 -5 0 -9 9
-9 20 0 11 2 20 4 20 2 0 6 -9 9 -20z m1232 -594 c4 -17 21 -46 38 -63 17 -18
26 -33 21 -33 -21 0 -65 58 -84 109 -19 52 -19 53 0 36 10 -9 22 -31 25 -49z
m1 -133 c24 -29 30 -43 20 -43 -15 0 -64 54 -86 95 -7 13 -9 32 -6 42 6 15 10
12 22 -16 8 -19 30 -54 50 -78z"/>
<path d="M3090 6483 c-67 -24 -133 -167 -113 -243 8 -29 65 -51 120 -46 37 3
53 11 75 35 15 17 34 31 42 31 27 0 40 66 26 129 -16 74 -41 101 -94 100 -23
0 -48 -3 -56 -6z"/>
<path d="M3250 6463 c0 -4 5 -15 10 -23 8 -13 10 -13 10 2 0 9 -4 20 -10 23
-5 3 -10 3 -10 -2z"/>
<path d="M3299 6462 c-22 -4 -17 -66 11 -127 11 -24 20 -49 20 -55 0 -20 23
-5 39 26 9 16 25 41 35 57 18 27 18 27 -8 52 -14 13 -26 28 -26 33 0 11 -45
19 -71 14z"/>
<path d="M2893 6355 c-32 -23 -136 -75 -149 -75 -6 0 -19 -12 -29 -26 -10 -15
-22 -23 -31 -20 -18 7 -18 -9 1 -28 16 -16 20 -30 6 -22 -5 4 -8 -2 -6 -11 1
-10 7 -17 11 -16 5 1 8 -37 6 -84 -3 -65 -1 -83 9 -78 8 5 10 4 5 -3 -4 -6
-13 -9 -21 -5 -10 3 -15 -2 -15 -17 0 -11 4 -19 9 -16 5 4 8 -20 7 -54 -2 -33
1 -60 6 -60 4 0 8 5 8 11 0 5 11 34 24 62 13 29 55 124 92 212 37 88 73 167
79 175 32 41 23 80 -12 55z m-163 -281 c0 -8 -5 -12 -10 -9 -6 4 -8 11 -5 16
9 14 15 11 15 -7z"/>
<path d="M3420 6317 c-13 -23 -25 -46 -25 -52 -1 -5 -6 -9 -12 -8 -18 4 -28
-38 -12 -48 8 -5 10 -9 5 -9 -6 0 -1 -7 10 -15 11 -8 14 -15 7 -15 -7 0 -13
-5 -13 -11 0 -5 4 -8 9 -4 6 3 15 -4 21 -16 8 -15 9 -19 1 -15 -6 4 -11 3 -11
-2 0 -6 6 -12 14 -15 22 -9 49 -54 49 -82 0 -15 4 -22 10 -18 6 4 8 0 4 -11
-4 -9 -3 -15 2 -11 5 3 15 -8 23 -25 14 -32 26 -38 33 -17 3 6 6 54 8 106 3
76 2 91 -8 77 -11 -14 -14 -14 -24 -2 -10 11 -8 19 5 35 10 11 21 18 25 16 7
-5 5 123 -2 128 -41 33 -78 57 -85 57 -5 0 -20 -19 -34 -43z"/>
<path d="M4550 6310 c-9 -6 -10 -10 -3 -10 6 0 15 5 18 10 8 12 4 12 -15 0z"/>
<path d="M2912 6283 c0 -5 -7 -26 -16 -48 -10 -22 -25 -56 -33 -75 -8 -19 -25
-57 -38 -85 -13 -27 -30 -66 -38 -85 -8 -19 -34 -77 -57 -128 -23 -51 -42
-101 -43 -112 -1 -11 -5 -20 -9 -20 -4 0 -8 -11 -8 -25 0 -14 -5 -25 -11 -25
-5 0 -8 -4 -5 -9 9 -14 -5 -42 -17 -34 -6 4 -8 -2 -5 -15 4 -12 2 -19 -3 -16
-5 3 -12 -3 -15 -13 -7 -20 -16 -42 -92 -213 -28 -63 -78 -178 -110 -255 -52
-122 -97 -224 -174 -395 -11 -24 -44 -101 -73 -170 -29 -69 -64 -150 -78 -180
-13 -30 -55 -125 -92 -210 -37 -85 -98 -222 -135 -305 -37 -82 -118 -264 -179
-404 -62 -140 -120 -273 -131 -295 -10 -23 -55 -127 -100 -231 -45 -105 -90
-208 -100 -230 -10 -22 -46 -105 -80 -185 -34 -80 -71 -163 -81 -185 -10 -22
-25 -57 -33 -78 -9 -20 -23 -53 -31 -72 -8 -19 -14 -35 -11 -35 3 0 166 298
284 520 25 47 94 173 153 281 59 107 115 213 126 235 10 21 37 73 60 114 22
41 64 120 93 175 29 55 56 105 60 110 4 6 30 53 57 105 28 52 75 140 105 195
63 113 99 179 170 315 50 93 73 135 117 214 13 22 41 76 64 120 22 45 50 97
62 116 12 19 50 91 85 160 35 69 82 159 105 200 23 41 66 120 95 175 29 55 68
128 87 162 19 35 32 67 28 73 -3 5 0 10 7 10 8 0 21 15 29 33 25 53 191 371
201 383 11 15 -1 46 -15 37 -6 -3 -7 -1 -3 5 4 6 -4 28 -17 49 -13 21 -54 87
-92 146 l-67 108 11 44 c13 54 13 55 1 55 -5 0 -9 -3 -8 -7z"/>
<path d="M3266 6259 c-12 -61 -108 -129 -180 -129 -36 0 -117 47 -134 77 -6
10 -12 12 -16 5 -7 -12 31 -77 184 -321 61 -95 110 -176 110 -179 0 -3 11 -20
25 -38 14 -18 25 -36 25 -41 0 -4 8 -18 18 -31 l18 -23 2 26 c1 14 13 46 27
70 13 25 22 45 20 45 -5 0 31 49 95 130 11 14 20 30 20 36 0 5 -29 66 -65 135
-36 68 -80 157 -100 197 -19 39 -37 72 -39 72 -2 0 -6 -14 -10 -31z"/>
<path d="M3985 5900 c3 -5 -12 -34 -35 -65 -22 -30 -45 -66 -50 -80 -9 -23 -7
-25 20 -25 38 0 149 -38 174 -59 10 -9 25 -31 33 -48 15 -36 33 -44 33 -14 0
11 6 26 13 33 10 9 12 32 9 76 -4 60 -7 66 -51 108 -55 53 -169 111 -146 74z"/>
<path d="M3123 5808 c-14 -23 -63 -112 -81 -148 -9 -19 -20 -37 -23 -40 -17
-15 -79 -153 -73 -163 4 -7 4 -9 -1 -5 -15 14 -94 -125 -98 -170 0 -12 -3 -19
-6 -17 -8 9 -41 -38 -72 -101 -17 -35 -35 -66 -40 -70 -5 -3 -7 -10 -4 -15 4
-5 2 -9 -4 -9 -8 0 -22 -28 -26 -50 0 -3 -12 -25 -27 -50 -15 -25 -34 -64 -43
-87 -10 -24 -20 -43 -24 -43 -4 0 -13 -16 -21 -35 -8 -19 -18 -35 -22 -35 -5
0 -6 -4 -3 -10 3 -5 1 -10 -4 -10 -6 0 -11 -9 -11 -21 0 -13 -4 -18 -12 -13
-8 5 -9 2 -5 -9 3 -10 3 -17 -1 -17 -12 0 -42 -56 -35 -64 3 -3 2 -6 -3 -6 -6
0 -16 -16 -24 -35 -8 -19 -17 -35 -20 -35 -4 0 -13 -18 -20 -39 -7 -22 -19
-42 -27 -46 -9 -3 -13 -12 -9 -20 3 -8 0 -18 -7 -22 -19 -13 -38 -53 -31 -66
4 -7 4 -9 -1 -5 -9 8 -35 -36 -35 -58 0 -8 -4 -14 -10 -14 -5 0 -10 -7 -10
-15 0 -8 -5 -15 -11 -15 -5 0 -8 -4 -5 -9 4 -5 3 -11 -1 -13 -5 -1 -27 -42
-51 -90 -23 -49 -47 -88 -52 -88 -6 0 -10 -8 -10 -17 0 -10 -8 -31 -18 -48
-18 -29 -65 -117 -150 -275 -21 -41 -54 -99 -71 -128 -17 -29 -31 -58 -31 -64
0 -6 -6 -19 -14 -27 -34 -40 -139 -248 -131 -261 3 -5 -3 -13 -13 -19 -10 -5
-37 -46 -61 -90 -23 -45 -55 -103 -71 -130 -15 -27 -26 -52 -22 -56 4 -3 1 -9
-5 -13 -11 -7 -123 -197 -123 -209 0 -3 -21 -42 -46 -87 -25 -44 -47 -86 -48
-93 -1 -7 -16 -34 -33 -60 -17 -26 -55 -95 -85 -153 -30 -58 -101 -189 -158
-293 -56 -103 -101 -190 -98 -192 4 -4 172 64 313 125 20 9 221 79 240 84 6 2
17 5 25 9 8 3 94 26 190 52 96 26 189 50 205 55 62 18 111 30 149 35 21 4 48
9 60 11 24 5 189 33 226 39 14 2 43 6 65 10 23 3 52 8 65 11 14 3 72 9 130 14
58 5 122 12 143 15 33 5 178 16 240 19 9 0 17 4 17 8 0 5 8 4 19 -1 10 -6 20
-8 23 -6 6 6 336 6 423 0 39 -2 95 -7 125 -10 30 -3 93 -7 140 -10 93 -6 103
-7 265 -30 149 -21 148 -21 245 -40 239 -47 432 -95 577 -143 48 -16 115 -37
148 -47 33 -10 87 -28 120 -41 33 -12 69 -24 80 -26 11 -1 26 -9 33 -15 7 -7
23 -13 35 -13 12 -1 33 -7 47 -15 14 -8 37 -14 52 -15 14 0 28 -4 30 -10 2 -5
35 -21 73 -35 39 -14 84 -33 102 -42 18 -9 34 -15 37 -13 2 3 -22 46 -54 95
-76 119 -216 343 -293 470 -6 11 -44 72 -83 135 -39 63 -100 162 -135 218 -35
57 -71 114 -79 127 -8 13 -35 57 -59 97 -25 40 -68 109 -96 153 -54 84 -126
198 -335 534 -69 111 -146 234 -171 274 -26 39 -162 259 -304 487 -142 228
-275 442 -295 475 -218 349 -221 355 -201 355 8 0 61 -63 61 -74 0 -3 14 -25
30 -49 17 -25 30 -50 30 -56 0 -6 5 -11 11 -11 5 0 7 -4 4 -10 -3 -5 -1 -10 4
-10 6 0 11 -6 11 -13 0 -14 49 -84 86 -126 13 -13 20 -31 16 -39 -3 -9 -1 -13
5 -9 7 4 14 -5 18 -22 4 -17 15 -33 26 -36 10 -4 19 -14 19 -22 0 -15 23 -54
101 -169 15 -22 29 -47 31 -55 2 -8 7 -17 12 -21 5 -3 11 -14 12 -24 2 -10 13
-26 26 -36 13 -10 19 -18 13 -18 -5 0 -2 -5 7 -11 9 -5 15 -15 12 -22 -2 -7 3
-22 13 -32 10 -11 24 -32 32 -47 8 -15 22 -36 32 -47 10 -10 15 -22 12 -25 -4
-3 -1 -6 5 -6 7 0 12 -6 12 -14 0 -8 8 -22 18 -32 9 -10 18 -21 18 -26 1 -4 2
-13 3 -19 0 -5 6 -7 13 -3 6 4 8 3 5 -3 -4 -6 6 -30 22 -54 15 -24 53 -83 84
-131 32 -48 57 -92 57 -97 0 -6 6 -14 13 -18 7 -4 21 -25 32 -46 11 -21 30
-50 42 -65 13 -15 26 -31 31 -37 9 -11 12 -20 12 -37 0 -9 4 -8 10 2 8 12 10
11 10 -6 0 -12 7 -27 15 -34 8 -7 15 -21 15 -31 0 -10 5 -21 12 -25 7 -5 8 -2
3 7 -5 10 -5 11 3 4 6 -5 12 -17 14 -25 2 -8 11 -23 21 -34 9 -11 17 -25 17
-32 0 -6 7 -14 15 -18 8 -3 15 -15 15 -26 0 -11 7 -23 15 -26 8 -4 12 -10 9
-15 -3 -5 -1 -9 3 -9 12 0 44 -56 36 -63 -3 -4 2 -9 11 -13 9 -3 16 -15 16
-26 0 -10 4 -17 8 -14 5 3 17 -15 27 -39 10 -25 21 -43 24 -40 4 2 16 -13 26
-33 10 -20 32 -56 47 -80 15 -24 28 -47 28 -53 0 -5 5 -9 10 -9 6 0 10 -5 10
-12 0 -13 49 -89 65 -100 5 -4 6 -8 2 -8 -5 0 5 -17 21 -37 16 -21 31 -42 32
-48 2 -5 13 -24 26 -41 13 -17 24 -35 24 -40 0 -5 11 -19 24 -32 14 -12 36
-45 49 -72 14 -27 27 -47 30 -44 3 3 8 -8 12 -25 4 -17 10 -31 15 -31 4 0 10
-10 14 -23 3 -12 16 -33 28 -47 13 -13 23 -27 23 -30 0 -14 127 -212 132 -206
3 2 -9 28 -25 58 -16 29 -62 118 -103 198 -40 80 -85 165 -99 190 -28 47 -70
127 -239 447 -55 106 -167 316 -247 465 -81 150 -167 311 -192 358 -25 47 -91
171 -147 275 -57 105 -141 262 -187 350 -47 88 -105 198 -130 245 -25 47 -68
128 -96 180 -27 52 -61 115 -74 140 -14 25 -55 104 -92 175 -38 72 -71 133
-75 137 -6 7 -25 -13 -121 -126 -23 -27 -58 -60 -78 -74 -20 -13 -39 -27 -42
-31 -6 -7 -18 -10 -62 -15 -23 -2 -43 5 -73 26 -69 50 -113 97 -120 128 -8 35
18 124 45 155 9 11 20 26 24 33 7 11 -135 265 -154 277 -5 3 -12 0 -17 -7z
m94 -2743 c84 -25 143 -72 178 -139 28 -55 30 -67 29 -165 0 -128 -22 -195
-89 -269 -76 -85 -118 -95 -472 -115 l-63 -3 0 28 c0 24 4 28 30 28 19 0 33 7
40 20 13 24 -25 527 -41 547 -7 7 -29 13 -50 13 -35 0 -39 3 -39 24 0 23 5 25
63 30 190 18 354 19 414 1z m1063 -61 c85 -14 156 -26 157 -28 1 -1 0 -12 -4
-24 -5 -19 -10 -21 -43 -16 -33 5 -40 3 -53 -17 -13 -22 -52 -207 -45 -215 3
-2 233 -54 243 -54 7 0 46 193 43 217 -2 23 -10 30 -41 37 -31 8 -36 13 -31
30 4 12 8 22 9 24 2 2 245 -60 328 -84 18 -6 22 -21 9 -42 -7 -9 -16 -10 -41
-1 -28 10 -35 9 -51 -7 -22 -23 -165 -506 -157 -528 4 -9 19 -21 36 -28 24
-11 28 -17 21 -35 l-9 -22 -113 31 c-62 17 -124 34 -138 38 -18 4 -25 13 -25
31 0 22 4 24 37 21 28 -3 39 1 47 16 13 25 63 234 57 239 -10 11 -230 53 -236
46 -9 -10 -40 -190 -40 -230 0 -27 5 -33 35 -43 19 -6 35 -17 35 -23 -1 -34
-15 -35 -155 -11 -77 13 -143 24 -147 24 -5 0 -8 11 -8 25 0 22 4 25 39 25 22
0 43 5 46 11 10 15 74 465 75 516 0 38 -3 43 -27 49 -49 10 -53 13 -53 34 0
26 11 26 200 -6z m-2199 -87 c62 -42 45 -119 -32 -146 -27 -9 -30 -8 -48 28
-27 52 -48 66 -96 65 -82 -2 -145 -69 -145 -155 0 -110 83 -318 147 -366 74
-56 210 -24 263 62 26 41 37 44 46 10 32 -129 -223 -242 -377 -167 -130 63
-245 276 -225 419 21 156 177 270 372 272 48 1 68 -4 95 -22z"/>
<path d="M3003 2913 c4 -60 10 -188 13 -287 l7 -178 54 5 c74 8 117 37 148
102 53 107 54 286 2 379 -31 55 -92 86 -170 86 l-60 0 6 -107z"/>
<path d="M3872 5701 c-6 -9 -34 -50 -62 -91 l-50 -75 38 -6 c20 -3 49 -9 64
-13 24 -7 28 -5 34 18 9 36 27 33 22 -4 -3 -19 0 -30 8 -30 6 0 44 -13 83 -29
68 -27 71 -28 71 -9 0 11 9 31 20 45 22 29 25 65 9 112 -12 34 -24 43 -92 66
-84 29 -133 34 -145 16z"/>
<path d="M3920 5130 c0 -5 5 -10 11 -10 5 0 7 5 4 10 -3 6 -8 10 -11 10 -2 0
-4 -4 -4 -10z"/>
<path d="M3703 2273 c9 -2 23 -2 30 0 6 3 -1 5 -18 5 -16 0 -22 -2 -12 -5z"/>
<path d="M2939 2266 c-2 -2 -51 -7 -109 -10 -58 -4 -118 -9 -135 -11 -16 -2
-64 -6 -105 -10 -41 -3 -82 -8 -90 -10 -8 -3 -89 -16 -180 -30 -266 -40 -307
-50 -735 -170 -161 -45 -338 -111 -488 -180 l-68 -32 44 -6 c24 -3 313 -7 643
-7 329 -1 626 -3 659 -5 80 -5 2637 -11 2933 -7 127 1 232 7 232 12 0 4 -17
14 -37 21 -21 7 -65 24 -98 39 -33 15 -78 33 -100 40 -22 7 -44 16 -49 20 -5
5 -15 6 -22 3 -8 -3 -14 -1 -14 5 0 5 -9 12 -20 15 -17 4 -20 2 -15 -14 8 -24
-18 -26 -61 -5 -16 8 -40 17 -54 20 -14 3 -63 19 -110 36 -47 16 -96 30 -108
30 -13 0 -38 6 -55 14 -18 8 -86 26 -152 41 -66 14 -154 35 -195 45 -41 11
-86 21 -100 24 -14 3 -68 14 -120 25 -52 11 -120 23 -150 27 -30 4 -57 8 -60
9 -3 1 -34 5 -70 9 -36 4 -108 14 -160 21 -52 8 -124 17 -160 20 -36 3 -78 8
-95 11 -38 6 -590 16 -596 10z"/>
<path d="M3813 2263 c9 -2 23 -2 30 0 6 3 -1 5 -18 5 -16 0 -22 -2 -12 -5z"/>
<path d="M3888 2253 c12 -2 30 -2 40 0 9 3 -1 5 -23 4 -22 0 -30 -2 -17 -4z"/>
<path d="M3971 2246 c2 -2 29 -6 59 -9 36 -4 46 -3 30 3 -25 8 -97 13 -89 6z"/>
<path d="M4090 2231 c0 -9 159 -36 167 -28 2 3 -29 10 -69 17 -40 6 -79 13
-85 15 -7 3 -13 1 -13 -4z"/>
<path d="M5430 2205 c0 -2 9 -19 20 -37 23 -39 27 -30 5 12 -14 27 -25 38 -25
25z"/>
<path d="M4320 2183 c30 -8 105 -26 165 -39 61 -13 130 -31 155 -38 25 -8 59
-17 75 -19 17 -3 39 -9 49 -13 13 -5 17 -4 13 4 -4 6 -22 13 -40 17 -17 4 -68
18 -112 32 -84 26 -312 74 -342 72 -10 -1 7 -8 37 -16z"/>
<path d="M4790 2074 c0 -10 218 -79 225 -72 3 2 -19 12 -48 21 -29 9 -72 23
-97 31 -25 8 -53 17 -62 21 -10 4 -18 3 -18 -1z"/>
<path d="M5089 1971 c71 -35 71 -35 71 -22 0 5 -24 17 -52 27 -85 27 -87 27
-19 -5z"/>
</g>
</svg>
